<!DOCTYPE svg PUBLIC "-//W3C//DTD SVG 1.1//EN" "http://www.w3.org/Graphics/SVG/1.1/DTD/svg11.dtd">
<!-- Uploaded to: SVG Repo, www.svgrepo.com, Transformed by: SVG Repo Mixer Tools -->
<svg height="800px" width="800px" version="1.1" id="Capa_1" xmlns="http://www.w3.org/2000/svg" xmlns:xlink="http://www.w3.org/1999/xlink" viewBox="0 0 475.716 475.716" xml:space="preserve" fill="#ffffff" stroke="#ffffff">
<g id="SVGRepo_bgCarrier" stroke-width="0"/>
<g id="SVGRepo_tracerCarrier" stroke-linecap="round" stroke-linejoin="round"/>
<g id="SVGRepo_iconCarrier"> <g> <path style="fill:#1C1C1C;" d="M458.039,132.178h-8.425l-41.23,41.223h6.752c8.493,0,15.385,6.905,15.385,15.393v185.393 c0,8.517-6.892,15.392-15.385,15.392H151.758c-8.493,0-15.385-6.875-15.385-15.392V188.793c0-8.487,6.892-15.393,15.385-15.393 h134.229l41.223-41.223H17.676C7.913,132.178,0,140.076,0,149.83v263.317c0,9.755,7.913,17.684,17.676,17.684h440.363 c9.763,0,17.676-7.929,17.676-17.684V149.83C475.715,140.076,467.802,132.178,458.039,132.178z M46.674,179.624 c0-3.436,2.786-6.224,6.224-6.224h31.034c3.438,0,6.224,2.788,6.224,6.224v31.034c0,3.438-2.786,6.226-6.224,6.226H52.898 c-3.438,0-6.224-2.788-6.224-6.226V179.624z M90.156,383.368c0,3.438-2.786,6.226-6.224,6.226H52.898 c-3.438,0-6.224-2.788-6.224-6.226v-31.034c0-3.437,2.786-6.224,6.224-6.224h31.034c3.438,0,6.224,2.787,6.224,6.224V383.368z M68.415,318.531c-20.457,0-37.034-16.586-37.034-37.025c0-20.457,16.577-37.042,37.034-37.042 c20.448,0,37.025,16.585,37.025,37.042C105.44,301.945,88.863,318.531,68.415,318.531z"/> <path style="fill:#1C1C1C;" d="M152.23,374.186l262.905-0.465l-0.473-184.464h-22.137l-72.372,72.363 c-6.581,6.598-14.872,11.135-23.971,13.117l-34.076,7.447c-1.386,0.295-2.809,0.449-4.227,0.449c-5.35,0-10.376-2.09-14.138-5.885 c-4.808-4.846-6.798-11.705-5.335-18.318l7.441-34.021c1.982-9.091,6.513-17.374,13.101-23.973l11.181-11.18H151.758 L152.23,374.186z"/> <path style="fill:#1C1C1C;" d="M255.001,265.584c0.774,0.775,1.811,1.192,2.88,1.192c0.294,0,0.588-0.029,0.883-0.092l34.036-7.434 c6.11-1.332,11.715-4.397,16.136-8.826l0.674-0.682l-38.768-38.775l-0.682,0.682c-4.421,4.429-7.488,10.034-8.818,16.137 l-7.442,34.035C253.599,263.185,254.016,264.593,255.001,265.584z"/> <path style="fill:#1C1C1C;" d="M320.82,238.533l146.866-146.85c10.707-10.701,10.707-28.076,0-38.776 c-5.351-5.342-12.374-8.021-19.389-8.021c-7.016,0-14.039,2.679-19.389,8.021L282.053,199.757L320.82,238.533z"/> </g> </g>
</svg>